<svg xmlns="http://www.w3.org/2000/svg" fill="none" viewBox="0 0 474 40" height="40" width="474">
<g clip-path="url(#clip0_7093_7857)">
<path fill="black" d="M168.305 40C159.485 40 154.552 39.6334 150.528 38.6287C145.208 37.3388 142.204 34.1344 142.245 29.5995C142.245 28.7169 142.356 27.8072 142.562 26.8296C143.031 24.6707 143.499 22.4033 144.202 19.9728C144.905 17.556 145.787 15.1392 146.572 12.9667C148.722 7.074 153.67 3.13646 160.849 1.54786C165.535 0.502376 170.854 0.0135777 180.06 0C180.184 0 180.308 0 180.418 0C186.647 0 195.15 0.312288 201.599 0.760353L202.55 0.814664L200.125 9.17855L199.504 9.13781C193.841 8.75764 184.745 8.36388 179.591 8.36388C179.536 8.36388 179.481 8.36388 179.398 8.36388C173.845 8.36388 170.675 8.49966 167.809 8.79837C162.958 9.34148 160.904 10.3462 159.416 12.8717C159.03 13.5234 158.617 14.664 158.327 15.5193H197.327L194.833 24.1005H155.819L155.723 24.4263C155.571 24.9287 155.13 26.6395 155.117 27.6035L155.144 27.7936L155.117 27.8479C155.158 28.9885 155.475 29.5859 156.26 30.129C157.087 30.6993 158.589 31.1202 160.836 31.351C163.385 31.6225 166.32 31.7447 171.364 31.7447H172.163C177.276 31.7447 186.771 31.2967 192.738 30.8893L193.827 30.8215L191.374 39.2396L190.836 39.2804C183.987 39.7556 175.126 40.0136 168.87 40.0272H168.263L168.305 40ZM250.755 40C241.977 40 237.057 39.6198 233.033 38.6287C227.7 37.3388 224.627 34.1208 224.668 29.5451C224.668 28.6898 224.765 27.78 224.985 26.7889L232.785 0H245.45L238.352 24.4128C238.201 24.9287 237.732 26.4766 237.677 27.427V27.4542V27.7122C237.705 28.9341 238.008 29.5451 238.821 30.1154C239.648 30.6857 241.15 31.1066 243.382 31.3374C245.946 31.6225 248.867 31.7312 253.925 31.7312C254.187 31.7312 254.462 31.7312 254.724 31.7312C259.823 31.7312 269.332 31.2967 275.312 30.8758L276.401 30.7943L273.962 39.2125L273.424 39.2532C266.575 39.7284 257.714 39.9864 251.444 40H250.755ZM199.243 40L210.887 0H223.648L212.004 39.9864H199.243V40ZM142.659 0H129.898L122.291 26.1371L94.7016 0H82.6572L71.0125 39.9864H83.7735L91.3805 13.8493L118.983 39.9864H131.028L142.659 0ZM307.987 39.9864C299.208 39.9864 294.275 39.6062 290.265 38.6151C284.945 37.3252 281.858 34.1073 281.9 29.5316C281.9 28.6762 281.996 27.7665 282.217 26.7753L290.017 0H302.681L295.57 24.4128C295.419 24.9151 294.964 26.463 294.895 27.4134L294.922 27.4406L294.895 27.7122C294.922 28.9206 295.239 29.5316 296.039 30.1018C296.866 30.6721 298.368 31.093 300.6 31.3238C303.15 31.609 306.085 31.7176 311.142 31.7176C311.404 31.7176 311.666 31.7176 311.942 31.7176C317.041 31.7176 326.549 31.2831 332.516 30.8622L333.605 30.7807L331.18 39.1989L330.642 39.2396C323.793 39.7149 314.932 39.9728 308.676 39.9864H307.987ZM26.0596 39.9864C17.2537 39.9864 12.3064 39.6198 8.28242 38.6151C2.96304 37.3388 -0.0411653 34.1344 0.000176994 29.5995C0.000176994 28.7169 0.110423 27.7936 0.317135 26.8296C0.785681 24.6707 1.25423 22.4033 1.95705 19.9728C2.65987 17.556 3.54184 15.1392 4.34112 12.9667C6.47714 7.074 11.4244 3.13646 18.618 1.54786C23.2897 0.502376 28.6091 0.0271555 37.8146 0C47.0064 0.0271555 52.0364 0.502376 56.143 1.54786C61.4211 2.85132 64.4253 6.05567 64.3839 10.5906C64.3839 11.4732 64.2737 12.3965 64.067 13.3741C63.5984 15.5465 63.0748 17.9633 62.372 20.3802C61.6553 22.8106 60.8009 25.0781 60.0154 27.2369C57.8519 33.1297 52.9183 37.0536 45.711 38.6151C41.1358 39.6062 35.968 39.9864 27.1621 39.9864H26.0458H26.0596ZM14.0428 30.1018C14.8696 30.6721 16.3717 31.093 18.618 31.3238C21.071 31.5954 23.8823 31.704 28.5815 31.7176C33.2807 31.7176 36.1747 31.5954 38.7793 31.3238C43.6301 30.7943 45.6834 29.8031 47.1718 27.2777C47.7643 26.2729 48.3156 24.5214 48.4809 23.9919L50.7961 16.0625C50.9477 15.5465 51.4989 13.4691 51.4989 12.5187C51.4989 12.4644 51.4989 12.4508 51.4989 12.4508C51.4714 11.2288 51.1682 10.6042 50.3551 10.0339C49.5283 9.46368 48.0262 9.04277 45.7937 8.79837C43.3545 8.51324 40.5156 8.39104 35.8164 8.36388C31.1034 8.39104 28.1956 8.51324 25.5773 8.79837C20.7265 9.34148 18.6593 10.3462 17.1848 12.8717C16.606 13.8629 15.9445 15.9674 15.7929 16.4834L13.4916 24.4263C13.34 24.9287 12.899 26.6395 12.8852 27.59L12.9128 27.78L12.8852 27.8344C12.9265 28.9749 13.2573 29.5723 14.029 30.1154M78.4403 0H69.7171L67.2917 8.30957H76.0287L78.4403 0Z"></path>
<path fill="black" d="M415.983 17.6646C415.597 13.6185 417.196 10.5227 421.109 7.73931C421.151 7.69857 421.206 7.67142 421.247 7.64426C421.523 7.45417 421.812 7.26409 422.102 7.074C422.184 7.01969 422.267 6.96538 422.364 6.92464C422.653 6.74813 422.97 6.55804 423.287 6.36796C423.328 6.3408 423.37 6.31364 423.411 6.30007C424.183 5.86558 425.009 5.43109 425.919 5.01018V4.92872C423.604 5.05092 396.29 5.90631 389.813 14.8948C389 15.8995 388.546 16.7413 388.284 17.9769C386.837 24.7658 403.346 30.998 418.105 33.4827C423.935 34.4603 431.927 35.6415 439.438 36.7006C442.897 37.1894 446.259 37.6511 449.25 38.0584C448.547 37.9905 447.748 37.9362 446.866 37.8955C436.475 37.4338 414.908 36.2525 393.534 31.7855C379.299 28.8119 369.583 24.3041 369.487 19.9593C369.39 14.8133 384.742 10.1561 399.377 6.69382C414.357 3.15003 433.857 1.87373 446.066 3.85607C450.862 4.63001 454.307 5.86558 455.382 7.8072C456.361 10.0747 454.555 12.6816 449.195 15.465L449.222 15.5193C455.437 15.017 474.538 10.1697 473.656 6.2186C472.87 2.72912 455.465 -0.0950455 433.554 0.0271541C425.354 -0.0950455 415.625 0.515952 403.897 2.22675C372.05 6.88391 330.749 24.0054 388.904 34.0665C406.226 37.0536 439.438 39.647 471.023 40.0136C448.878 37.0401 431.417 31.5003 422.35 25.8113C418.574 23.1908 416.493 20.4345 415.997 17.6782"></path>
</g>
<defs>
<clipPath id="clip0_7093_7857">
<rect fill="black" height="40" width="474"></rect>
</clipPath>
</defs>
</svg>
