<?xml version="1.0" encoding="UTF-8"?>
<svg id="Capa_1" xmlns="http://www.w3.org/2000/svg" version="1.1" viewBox="0 0 320 137">
  <!-- Generator: Adobe Illustrator 30.2.1, SVG Export Plug-In . SVG Version: 2.1.1 Build 1)  -->
  <path d="M42.7,105.8H10.2c-.1,0-.3.1-.3.3v25.5c0,.2.2.4.4.4h7c.1,0,.3-.1.3-.3v-20.3c0-.2.2-.4.4-.4h8.3c.2,0,.4.2.4.4v20.2c0,.2.2.4.4.4h6.9c.2,0,.4-.2.4-.4v-20.2c0-.2.2-.4.4-.4h5.4c2.2.1,3.1.8,3.2,2.6v18c0,.2.2.4.4.4h6.9c.2,0,.4-.2.4-.4v-16c-.4-7.2-4.5-9.8-8.4-9.8h0Z"/>
  <path d="M78.9,105.8l-14.4.1c-2.6,0-4.9,1-6.5,2.6-1.6,1.7-2.5,4-2.4,6.7v8.5c.1,5.7,5.3,8.3,8.8,8.3h14.4c3.3,0,9.6-1.5,9.7-7.4v-10.3c.1-2.1-.7-4-2.1-5.5-1.9-1.8-4.8-3-7.5-3ZM67.8,127.3c-1.8,0-4.5-1.5-4.5-4.9v-6.3c0-1.6.4-3,1.3-3.9.8-.8,1.9-1.2,3.2-1.2h8.1c1.1,0,2.7.4,3.7,1.5.8.8,1.1,1.8,1.1,3.1v7.4c-.1,3.4-3.2,4.3-5,4.3,0,0-7.9,0-7.9,0ZM78.7,131.7h0Z"/>
  <path d="M160.2,105.8h-28.1c-.1,0-.3.1-.3.3v5.1c0,.07.03.13.1.2,0,.1.1.1.2.1h10.1v20.2c0,.2.1.3.3.3h7.6c.1,0,.3-.1.3-.3v-20.2h9.9c.1,0,.3-.1.3-.3v-5.1c-.1-.2-.2-.3-.4-.3h0Z"/>
  <path d="M118.1,105.9h-24.1c-.2,0-.4.2-.4.4v25.3c0,.2.2.4.4.4h7.3c.2,0,.4-.2.4-.4v-20.4h14.2c1.3,0,2.8.5,2.8,2.4v18c0,.2.2.4.4.4h7.2c.2,0,.4-.2.4-.4v-15.8c.1-3.2-.6-5.7-2.3-7.5-2.2-2.2-5.2-2.4-6.3-2.4Z"/>
  <path d="M270.3,105.9h-24.1c-.2,0-.4.2-.4.4v25.3c0,.2.2.4.4.4h7.3c.2,0,.4-.2.4-.4v-20c0-.2.2-.4.4-.4h13.9c1.3,0,2.8.5,2.8,2.4v18c0,.2.2.4.4.4h7.2c.2,0,.4-.2.4-.4v-15.8c.1-3.2-.6-5.7-2.3-7.5-2.3-2.2-5.2-2.4-6.4-2.4Z"/>
  <path d="M239.7,117h-15.4c-.2,0-.4.2-.4.4v3.5c0,.2.2.4.4.4h7.4c.2,0,.4.2.4.4v5.1c0,.2-.2.4-.4.4h-13.4c-.1,0-3.3-.1-3.3-3v-10.1c0-.3.5-3,3.6-3h19c.2,0,.4-.2.4-.4v-4.5h0c0-.2-.2-.4-.4-.4h-21.1c-2.8,0-9.2.9-9.2,7.5v11.8c.1,3.9,4.3,6.7,7.2,6.7h25.2c.2,0,.4-.2.4-.4v-14.2s-.2-.2-.4-.2h0Z"/>
  <path d="M309.7,111.4c.2,0,.4-.2.4-.4v-4.8c0-.2-.2-.4-.4-.4h-25.5c-.2,0-.4.2-.4.4v25.4c0,.2.2.4.4.4h25.5c.2,0,.4-.2.4-.4v-4.4c0-.2-.2-.4-.4-.4h-18.3v-5.6h16.4c.2,0,.4-.2.4-.4v-3.4c0-.2-.2-.4-.4-.4h-16.4v-5.6h18.3Z"/>
  <path d="M205,127.6q0-.07,0,0t0,0,0,0c-13.1-8.8-22.8-19-25.7-22.8h0c-.1-.1-.2-.1-.3-.1s-.2.1-.3.1h0c-2.9,3.8-12.5,14-25.6,22.7h0c-.1.1-.1.2-.1.3,0,.3.2.5.5.5h.2c2-.8,3.8-1.4,5.3-2,10.7-4,11.9-3.6,14.4-2,2.2,1.5,4.1,6.8,5,9.4.2.5.3,1,.4,1.3,0,.1.1.1.1.2h0l.1.1h.4s.1,0,.1-.1h0s.1-.1.1-.2c.1-.3.2-.7.4-1.3.9-2.6,2.7-7.9,5-9.4,2.5-1.6,3.6-1.9,14.4,2,1.6.6,3.3,1.2,5.3,2h.2c.3,0,.5-.2.5-.5-.3,0-.3-.2-.4-.2h0Z"/>
  <path d="M309.6,98.5c-.6-.1-64.5-7.1-102.2-32.8-11.4-8.5-14.7-13.1-13.8-18.9,1.2-7.3,10.3-11.2,33.7-14.4l7,2.4h.2c.3,0,.5-.2.5-.5v-.2l-3.4-16.1c-.3-2-2.4-5.8-8.1-6.3-6.3-.5-16.5-1.2-18-1.3-1.3-1.1-10.1-8.6-24.3-8.6-4.1,0-8.3.6-12.6,1.9-16.7,4.9-38.4,22-47.7,29.4h-.1c-1.3,1.1-2.4,1.9-3.1,2.5,0,0-.1.1-.4.3-4.6,4.1-17.3,14.8-34.8,26.6-25.1,17-49.3,29.1-72.1,35.9-.2.1-.4.3-.3.6,0,.3.3.4.5.4h68.3c1.9-.4,9.1-2,20.7-6.2,16.3-5.9,33.7-13.9,51.7-24,.2-.1.3-.3.3-.5s-.1-.4-.3-.5c-.3-.1-21.2-12.2-28.3-26.2l.2-.2c7.8-6.8,14.4-11.9,18.6-15,11.7-8.6,21.3-14,28.4-16,4.7-1.3,8.3-1.9,11.6-1.9,6.8,0,11.5,2.6,19,8,.1.1.2.1.3.1l17.7,1c4.2.2,6.1.4,6.9,3.1.4,1.9.8,3.7,1.2,5.4l-2.9-.4h-.2c-.2,0-16.9,3-22.4,5-10,3.6-14.9,9.4-15,17.6-1.5,3.9-13.3,13.1-28.7,22.3-11.1,6.6-33.9,19-61,27.6-.2.1-.4.3-.3.6,0,.3.3.4.5.4h212.8c.3,0,.5-.2.5-.5-.1-.3-.3-.6-.6-.6ZM139.5,69.8c.1.1.2.2.1.4,0,.3-.3.5-.6.4-2.6-1-9.9-5-15.3-5.1-5.3-.2-7.4,7.4-7.8,8.8,0,.1,0,.4-.4.4s-.5-.3-.5-.3c-.7-1.2-2.5-10-7.4-10.1-4.9-.2-14,3.8-19.2,5.6-.3.1-.6-.1-.6-.4,0-.2.1-.3.2-.4,13.1-8.3,26.1-19.6,27.8-20.8.1-.1.2-.1.3-.1.3,0,.4.2.5.3,6.4,9.9,19,18.9,22.9,21.3h0ZM213.4,78.4c-.1.1-.2.1-.3.1h-.1c-.8-.3-1.5-.5-2.2-.8-6.4-2.2-11.5-4-14.6-4.1-4.1-.2-5.8,5.7-6.6,8.5-.1.3-.1.5-.2.7,0,0-.1.4-.4.4-.2,0-.3-.1-.4-.4-.3-2.4-1.8-10-6.2-9.8-4.2.2-10.2,2.3-13.8,3.6-.8.3-1.5.5-2,.7-1,.3-1.4.5-1.5.5-.2,0-.4-.1-.5-.2-.1-.2,0-.4.1-.5,7.5-4.4,14.4-10.1,19.4-14.2,2.2-1.8,3.9-3.3,5.1-4.1.1-.1.2-.1.3-.1s.2.1.2.2c4.7,6.9,9.1,11.1,23.5,18.9.2.1.3.2.3.4.1,0,0,.2-.1.2Z"/>
</svg>
