<?xml version="1.0" encoding="UTF-8" standalone="no"?>
<svg
   xmlns:dc="http://purl.org/dc/elements/1.1/"
   xmlns:cc="http://creativecommons.org/ns#"
   xmlns:rdf="http://www.w3.org/1999/02/22-rdf-syntax-ns#"
   xmlns:svg="http://www.w3.org/2000/svg"
   xmlns="http://www.w3.org/2000/svg"
   viewBox="0 0 378.66666 378.66666"
   height="378.66666"
   width="378.66666"
   xml:space="preserve"
   id="svg2"
   version="1.1"><metadata
     id="metadata8"><rdf:RDF><cc:Work
         rdf:about=""><dc:format>image/svg+xml</dc:format><dc:type
           rdf:resource="http://purl.org/dc/dcmitype/StillImage" /></cc:Work></rdf:RDF></metadata><defs
     id="defs6" /><g
     transform="matrix(1.3333333,0,0,-1.3333333,0,378.66667)"
     id="g10"><g
       transform="scale(0.1)"
       id="g12"><path
         id="path14"
         style="fill:#141311;fill-opacity:1;fill-rule:evenodd;stroke:none"
         d="m 1421.79,2685.95 c -698.536,0 -1266.661,-568.48 -1266.661,-1266.65 0,-698.534 568.125,-1267.019 1266.661,-1267.019 698.17,0 1266.65,568.485 1266.65,1267.019 0,698.53 -568.48,1266.65 -1266.65,1266.65 z m 0,-2684.14531 C 640.43,1.80469 4.63281,637.59 4.63281,1419.3 c 0,781.69 635.79719,1417.49 1417.15719,1417.49 781.35,0 1417.49,-635.8 1417.49,-1417.49 C 2839.28,637.59 2203.14,1.80469 1421.79,1.80469" /><path
         id="path16"
         style="fill:#141311;fill-opacity:1;fill-rule:evenodd;stroke:none"
         d="m 1468.66,607.285 330.23,691.125 221.32,-216.75 z m -42.64,-147.324 h -287.95 c -10.21,17.617 -380.625,644.969 -390.851,661.869 46.176,89.18 678.801,1311.78 678.801,1311.78 V 2285.58 L 1735.1,1264.93 1426.02,618.211 Z M 1425.3,2515.02 702.809,1122.2 1116.57,423.316 H 1733.7 L 2147.45,1122.2 1425.3,2515.02" /><path
         id="path18"
         style="fill:#141311;fill-opacity:1;fill-rule:evenodd;stroke:none"
         d="M 831.809,1082.01 1383.37,607.285 1053.13,1298.76 Z" /><path
         id="path20"
         style="fill:#141311;fill-opacity:1;fill-rule:evenodd;stroke:none"
         d="M 1426.36,617.156 V 2286.99 l -309.09,-1022.4 z" /></g></g></svg>