<?xml version="1.0" encoding="UTF-8" standalone="no"?>
<!DOCTYPE svg PUBLIC "-//W3C//DTD SVG 1.1//EN" "http://www.w3.org/Graphics/SVG/1.1/DTD/svg11.dtd">
<svg width="100%" height="100%" viewBox="0 0 380 394" version="1.1" xmlns="http://www.w3.org/2000/svg" xmlns:xlink="http://www.w3.org/1999/xlink" xml:space="preserve" xmlns:serif="http://www.serif.com/" style="fill-rule:evenodd;clip-rule:evenodd;stroke-linejoin:round;stroke-miterlimit:2;">
    <g transform="matrix(1,0,0,1,-244.291907,-93.679543)">
        <g transform="matrix(1.337296,0,0,1.035914,-1999.257058,-4073.215156)">
            <g transform="matrix(0.822923,0,0,1.062354,1851.011078,4107.149226)">
                <path d="M0,197.118C-2.935,196.212 -8.818,197.892 -11.733,195.66C-14.135,193.821 -15.52,190.963 -15.867,187.964C-16.729,180.506 -6.536,182.919 -1.448,174.712C4.536,165.06 9.969,163.361 11.498,154.51C14.728,135.813 16.767,112.002 12.688,93.515C11.001,85.868 6.118,78.741 2.974,67.075C2.091,63.799 0.848,60.85 -0.97,58.033C-4.215,53.002 -5.912,48.576 -8.671,44.655C-11.984,39.947 -13.152,27.801 -13.058,22.178C-12.938,15.003 -17.129,11.323 -15.52,5.635C-13.493,-1.529 -1.329,12.931 1.214,15.738C7.134,22.27 12.376,24.329 15.105,29.778C16.887,33.334 18.956,36.439 21.202,39.695L29.376,51.542C34.607,59.124 38.155,64.857 39.587,74.277C42.438,93.025 40.93,106.354 42.881,118.937C44.368,128.533 42.385,131.517 43.781,140.876C44.563,146.12 45.556,151.052 46.629,156.2C47.384,159.823 46.845,163.216 45.113,166.436L40.242,175.499C37.705,180.218 34.225,184.787 28.535,185.557L21.522,186.505C6.218,188.575 5.475,204.775 5.142,217.78C5.109,219.1 5.959,219.403 7.181,219.231C13.912,218.281 20.229,218.033 26.89,218.018L60.863,217.944L99.133,218.953L122.707,219.612C124.416,219.66 135.458,220.041 133.762,222.477C133.531,222.809 132.739,223.014 131.934,223.05L111.914,223.939L93.141,224.267C84.588,224.416 76.381,225.125 67.785,225.088C62.989,225.067 58.453,225.325 53.674,225.656L9.652,228.707L-16.984,231.111L-31.135,232.965L-59.056,236.896L-80.67,240.359L-99.083,243.947L-114.804,247.302C-125.101,249.5 -134.915,251.958 -144.933,255.165L-172.124,263.872L-191.923,271.059L-210.139,277.705C-210.7,277.91 -210.835,276.344 -210.277,275.946C-204.111,271.552 -190.468,265.543 -183.093,262.456L-171.703,257.687C-159.756,252.685 -118.735,239.076 -106.601,236.641C-103.376,235.993 -106.434,231.76 -106.076,227.429L-105.564,221.221L-105.29,202.419L-104.662,193.107C-104.326,188.135 -103.834,182.164 -109.177,181.945C-115.426,181.689 -120.816,185.132 -124.997,182.939C-128.604,181.047 -132.158,178.805 -134.439,175.473L-138.915,168.935C-141.738,164.81 -148.141,157.159 -145.722,151.413L-143.586,146.337C-142.473,143.693 -142.274,141.063 -142.914,138.264C-144.667,130.593 -144.082,124.037 -144.337,115.564L-144.802,100.056C-144.926,95.951 -145.202,92.137 -145.964,88.187C-147.311,81.204 -148.012,58.424 -147.477,50.707C-146.786,40.728 -148.184,28.126 -151.117,18.39C-153.275,11.229 -155.193,4.199 -156.598,-3.193C-158.371,-12.52 -160.832,-21.263 -165.119,-29.699C-170.25,-39.799 -166.881,-45.875 -172.091,-55.874C-175.924,-63.23 -176.433,-67.238 -181.112,-73.851C-182.438,-75.725 -184.75,-78.697 -183.322,-79.636C-181.567,-80.792 -172.116,-72.326 -169.058,-69.922C-159.15,-62.131 -161.284,-55.702 -155.432,-49.623C-150.14,-44.126 -140.949,-32.419 -137.282,-25.82C-133.064,-18.23 -129.379,-13.486 -125.239,-5.842C-121.105,1.792 -117.298,5.159 -112.257,12.178C-107.622,18.632 -104.31,21.416 -100.732,28.522C-98.366,33.22 -95.938,37.601 -93.23,42.126C-87.991,50.882 -83.475,59.643 -78.933,68.781C-76.397,73.883 -72.863,78.033 -68.177,81.194C-62.255,85.188 -65.684,89.758 -64.154,96.864L-61.826,107.676C-61.211,110.532 -60.286,113.119 -58.837,115.599C-52.557,126.349 -59.792,140.227 -53.816,147.837C-51.107,151.286 -52.469,158.459 -53.179,163.232C-53.706,166.774 -57.941,165.302 -60.23,165.973C-59.276,171.9 -58.779,175.713 -63.302,178.956C-82.155,192.474 -97.154,186.341 -98.456,194.083C-99.053,197.636 -97.873,205.747 -98.731,214.693C-99.131,218.873 -100.803,234.009 -95.524,233.383C-93.698,233.167 -92.048,232.86 -90.262,232.356C-81.162,229.788 -60.603,225.549 -51.563,224.928C-48.847,224.742 -47.007,223.083 -46.781,220.332C-46.303,214.537 -45.711,209.047 -44.664,203.3C-43.617,197.554 -43.331,192.591 -46.901,187.988L-49.654,184.439C-54.653,177.994 -40.46,171.635 -41.311,161.538C-41.753,156.293 -41.901,151.178 -42.879,145.991C-45.092,134.25 -44.835,124.995 -47.083,117.264C-49.925,107.489 -48.602,101.192 -52.058,96.1C-53.434,94.072 -54.042,91.888 -53.821,89.343L-53.337,83.777C-53.104,81.097 -53.897,78.719 -55.701,76.8C-61.922,70.183 -68.923,62.225 -73.272,54.359L-82.136,38.326L-88.122,27.112C-92.009,19.832 -86.923,18.419 -86.2,7.628L-84.945,-11.126C-84.771,-13.718 -85.301,-16.108 -86.4,-18.368C-89.323,-24.384 -88.503,-28.178 -90.483,-35.194C-91.475,-38.711 -85.705,-33.876 -82.945,-29.203L-75.861,-17.211C-74.367,-14.68 -72.604,-12.544 -70.528,-10.482L-58.994,0.973C-53.234,6.693 -49.399,11.47 -41.593,14.769C-36.383,16.971 -37.145,20.546 -32.749,25.641C-31.12,27.529 -29.982,29.611 -29.27,32.055C-28.231,35.622 -26.704,38.724 -25.245,42.103L-21.345,51.137C-19.509,55.387 -17.244,59.203 -15.733,63.613C-13.593,69.864 0.022,83.706 0.752,98.074L1.819,119.1C2.037,123.381 1.734,127.415 1.089,131.599C-0.431,141.459 0.032,155.652 -6.695,162.566C-14.194,170.274 -22.101,177.179 -32.47,180.797C-37.164,182.435 -36.439,188.03 -36.904,193.554C-37.3,198.275 -39.171,219.555 -37.846,222.096C-37.555,222.655 -36.36,222.482 -35.605,222.368C-25.385,220.828 -15.568,220.361 -5.254,220.2C-3.904,220.179 -2.409,219.8 -1.683,218.72C0.218,215.895 -0.918,202.609 0,197.118" style="fill-rule:nonzero;"/>
            </g>
        </g>
    </g>
</svg>
