<?xml version="1.0" encoding="UTF-8" standalone="no"?>
<!DOCTYPE svg PUBLIC "-//W3C//DTD SVG 1.1//EN" "http://www.w3.org/Graphics/SVG/1.1/DTD/svg11.dtd">
<svg width="100%" height="100%" viewBox="0 0 900 629" version="1.1" xmlns="http://www.w3.org/2000/svg" xmlns:xlink="http://www.w3.org/1999/xlink" xml:space="preserve" xmlns:serif="http://www.serif.com/" style="fill-rule:evenodd;clip-rule:evenodd;stroke-linejoin:round;stroke-miterlimit:2;">
    <g transform="matrix(1,0,0,1,-1279.5,-3839.682822)">
        <g id="Mesa-de-trabajo16" serif:id="Mesa de trabajo16" transform="matrix(1.337296,0,0,1.035914,-719.757058,-233.532334)">
            <rect x="1495" y="3932" width="673" height="607" style="fill:none;"/>
            <clipPath id="_clip1">
                <rect x="1495" y="3932" width="673" height="607"/>
            </clipPath>
            <g clip-path="url(#_clip1)">
                <g id="v" transform="matrix(0.822923,0,0,1.062354,1494.999873,3931.999086)">
                    <g transform="matrix(1,0,0,1,446.2381,79.7447)">
                        <path d="M0,197.118C-2.935,196.212 -8.818,197.892 -11.733,195.66C-14.135,193.821 -15.52,190.963 -15.867,187.964C-16.729,180.506 -6.536,182.919 -1.448,174.712C4.536,165.06 9.969,163.361 11.498,154.51C14.728,135.813 16.767,112.002 12.688,93.515C11.001,85.868 6.118,78.741 2.974,67.075C2.091,63.799 0.848,60.85 -0.97,58.033C-4.215,53.002 -5.912,48.576 -8.671,44.655C-11.984,39.947 -13.152,27.801 -13.058,22.178C-12.938,15.003 -17.129,11.323 -15.52,5.635C-13.493,-1.529 -1.329,12.931 1.214,15.738C7.134,22.27 12.376,24.329 15.105,29.778C16.887,33.334 18.956,36.439 21.202,39.695L29.376,51.542C34.607,59.124 38.155,64.857 39.587,74.277C42.438,93.025 40.93,106.354 42.881,118.937C44.368,128.533 42.385,131.517 43.781,140.876C44.563,146.12 45.556,151.052 46.629,156.2C47.384,159.823 46.845,163.216 45.113,166.436L40.242,175.499C37.705,180.218 34.225,184.787 28.535,185.557L21.522,186.505C6.218,188.575 5.475,204.775 5.142,217.78C5.109,219.1 5.959,219.403 7.181,219.231C13.912,218.281 20.229,218.033 26.89,218.018L60.863,217.944L99.133,218.953L122.707,219.612C124.416,219.66 135.458,220.041 133.762,222.477C133.531,222.809 132.739,223.014 131.934,223.05L111.914,223.939L93.141,224.267C84.588,224.416 76.381,225.125 67.785,225.088C62.989,225.067 58.453,225.325 53.674,225.656L9.652,228.707L-16.984,231.111L-31.135,232.965L-59.056,236.896L-80.67,240.359L-99.083,243.947L-114.804,247.302C-125.101,249.5 -134.915,251.958 -144.933,255.165L-172.124,263.872L-191.923,271.059L-210.139,277.705C-210.7,277.91 -210.835,276.344 -210.277,275.946C-204.111,271.552 -190.468,265.543 -183.093,262.456L-171.703,257.687C-159.756,252.685 -118.735,239.076 -106.601,236.641C-103.376,235.993 -106.434,231.76 -106.076,227.429L-105.564,221.221L-105.29,202.419L-104.662,193.107C-104.326,188.135 -103.834,182.164 -109.177,181.945C-115.426,181.689 -120.816,185.132 -124.997,182.939C-128.604,181.047 -132.158,178.805 -134.439,175.473L-138.915,168.935C-141.738,164.81 -148.141,157.159 -145.722,151.413L-143.586,146.337C-142.473,143.693 -142.274,141.063 -142.914,138.264C-144.667,130.593 -144.082,124.037 -144.337,115.564L-144.802,100.056C-144.926,95.951 -145.202,92.137 -145.964,88.187C-147.311,81.204 -148.012,58.424 -147.477,50.707C-146.786,40.728 -148.184,28.126 -151.117,18.39C-153.275,11.229 -155.193,4.199 -156.598,-3.193C-158.371,-12.52 -160.832,-21.263 -165.119,-29.699C-170.25,-39.799 -166.881,-45.875 -172.091,-55.874C-175.924,-63.23 -176.433,-67.238 -181.112,-73.851C-182.438,-75.725 -184.75,-78.697 -183.322,-79.636C-181.567,-80.792 -172.116,-72.326 -169.058,-69.922C-159.15,-62.131 -161.284,-55.702 -155.432,-49.623C-150.14,-44.126 -140.949,-32.419 -137.282,-25.82C-133.064,-18.23 -129.379,-13.486 -125.239,-5.842C-121.105,1.792 -117.298,5.159 -112.257,12.178C-107.622,18.632 -104.31,21.416 -100.732,28.522C-98.366,33.22 -95.938,37.601 -93.23,42.126C-87.991,50.882 -83.475,59.643 -78.933,68.781C-76.397,73.883 -72.863,78.033 -68.177,81.194C-62.255,85.188 -65.684,89.758 -64.154,96.864L-61.826,107.676C-61.211,110.532 -60.286,113.119 -58.837,115.599C-52.557,126.349 -59.792,140.227 -53.816,147.837C-51.107,151.286 -52.469,158.459 -53.179,163.232C-53.706,166.774 -57.941,165.302 -60.23,165.973C-59.276,171.9 -58.779,175.713 -63.302,178.956C-82.155,192.474 -97.154,186.341 -98.456,194.083C-99.053,197.636 -97.873,205.747 -98.731,214.693C-99.131,218.873 -100.803,234.009 -95.524,233.383C-93.698,233.167 -92.048,232.86 -90.262,232.356C-81.162,229.788 -60.603,225.549 -51.563,224.928C-48.847,224.742 -47.007,223.083 -46.781,220.332C-46.303,214.537 -45.711,209.047 -44.664,203.3C-43.617,197.554 -43.331,192.591 -46.901,187.988L-49.654,184.439C-54.653,177.994 -40.46,171.635 -41.311,161.538C-41.753,156.293 -41.901,151.178 -42.879,145.991C-45.092,134.25 -44.835,124.995 -47.083,117.264C-49.925,107.489 -48.602,101.192 -52.058,96.1C-53.434,94.072 -54.042,91.888 -53.821,89.343L-53.337,83.777C-53.104,81.097 -53.897,78.719 -55.701,76.8C-61.922,70.183 -68.923,62.225 -73.272,54.359L-82.136,38.326L-88.122,27.112C-92.009,19.832 -86.923,18.419 -86.2,7.628L-84.945,-11.126C-84.771,-13.718 -85.301,-16.108 -86.4,-18.368C-89.323,-24.384 -88.503,-28.178 -90.483,-35.194C-91.475,-38.711 -85.705,-33.876 -82.945,-29.203L-75.861,-17.211C-74.367,-14.68 -72.604,-12.544 -70.528,-10.482L-58.994,0.973C-53.234,6.693 -49.399,11.47 -41.593,14.769C-36.383,16.971 -37.145,20.546 -32.749,25.641C-31.12,27.529 -29.982,29.611 -29.27,32.055C-28.231,35.622 -26.704,38.724 -25.245,42.103L-21.345,51.137C-19.509,55.387 -17.244,59.203 -15.733,63.613C-13.593,69.864 0.022,83.706 0.752,98.074L1.819,119.1C2.037,123.381 1.734,127.415 1.089,131.599C-0.431,141.459 0.032,155.652 -6.695,162.566C-14.194,170.274 -22.101,177.179 -32.47,180.797C-37.164,182.435 -36.439,188.03 -36.904,193.554C-37.3,198.275 -39.171,219.555 -37.846,222.096C-37.555,222.655 -36.36,222.482 -35.605,222.368C-25.385,220.828 -15.568,220.361 -5.254,220.2C-3.904,220.179 -2.409,219.8 -1.683,218.72C0.218,215.895 -0.918,202.609 0,197.118" style="fill-rule:nonzero;"/>
                    </g>
                    <g transform="matrix(1,0,0,1,95.5105,520.8214)">
                        <path d="M0,-86.736C-5.949,-75.042 -30.639,-60.149 -42.549,-53.955C-48.934,-50.634 -62.808,-45.395 -69.492,-45.84C-74.623,-46.181 -73.301,-52.958 -73.301,-57.955L-73.301,-110.95C-73.301,-116.837 -74.981,-123.22 -70.068,-123.853C-62.235,-124.862 -45.9,-124.673 -37.625,-123.917C-27.132,-122.957 -15.798,-119.378 -7.739,-112.656C-0.468,-106.59 4.561,-95.702 0,-86.736M14.195,-108.783C8.796,-122.959 -8.41,-130.745 -22.609,-133.533C-30.242,-135.031 -37.617,-136.25 -45.479,-136.55C-61.733,-137.17 -78.41,-137.288 -94.563,-136.007C-95.689,-135.467 -95.79,-134.338 -94.979,-133.438C-87.596,-127.256 -89.319,-125.151 -89.326,-114.905L-89.38,-32.991L-89.3,27.009L-89.196,36.185C-89.13,42.063 -92.092,43.905 -93.047,49.144C-93.123,49.818 -92.983,50.315 -92.533,50.552C-81.537,42.574 -73.108,46.827 -73.152,35.21L-73.236,13.529L-73.361,-12.954C-73.378,-16.596 -72.213,-19.774 -69.583,-22.123C-64.486,-26.675 -59.108,-30.459 -53.128,-33.796L-39.061,-41.645L-19.881,-52.518C-8.082,-59.207 4.52,-68.012 12.257,-79.182C18.422,-88.082 17.923,-98.997 14.195,-108.783" style="fill-rule:nonzero;"/>
                    </g>
                    <g transform="matrix(1,0,0,1,146.7147,474.7724)">
                        <path d="M0,-48.685C2.948,-56.047 -1.384,-63.246 -6.764,-67.767C-8.561,-69.276 -10.891,-69.857 -13.005,-71.214C-14.573,-72.219 -7.13,-80.388 -2.823,-83.201C2.694,-86.804 7.53,-81.24 10.01,-76.671C15.497,-66.56 19.617,-56.881 14.409,-45.692C11.503,-39.448 7.854,-33.953 3.837,-28.417L-2.066,-20.282C-5.598,-15.415 -8.388,-10.254 -10.581,-4.621C-12.671,0.745 -11.871,6.374 -8.582,10.972C-0.903,21.707 12.845,28.664 26.318,28.607L57.398,28.473C60.865,28.459 64.088,28.674 67.47,28.323C71.991,27.853 70.406,21.607 70.405,16.052L70.397,-62.851C70.396,-70.291 71.686,-75.485 66.982,-80.52C64.905,-82.742 63.076,-85.505 63.447,-88.976C63.549,-89.925 66.155,-89.856 67.209,-89.844L86.567,-89.628C89.081,-89.6 92.187,-89.849 92.061,-87.801C91.62,-80.673 86.207,-80.54 86.273,-71.928L86.473,-45.849L86.546,30.526C86.553,38.239 93.774,40.222 91.187,40.743C88.717,41.24 74.752,40.203 69.383,40.147L23.423,39.667C6.103,39.487 -9.469,33.25 -20.911,20.448C-44.138,-5.542 -8.385,-27.746 0,-48.685" style="fill-rule:nonzero;"/>
                    </g>
                    <g transform="matrix(1,0,0,1,335.3819,443.5433)">
                        <path d="M0,11.308C-4.795,10.408 -8.839,5.573 -16.866,6.634C-30.121,8.387 -42.535,12.666 -53.898,19.564C-58.444,22.323 -58.487,26.039 -58.454,31.17L-58.344,48.375C-58.327,50.903 -58.231,53.224 -57.671,55.602C-56.307,61.403 -49.748,60.384 -44.328,60.382L5.76,60.364C21.655,60.358 28.042,47.456 30.74,49.788C31.868,50.763 29.037,55.992 28.064,57.651L22.114,67.798C19.261,72.665 13.915,71.974 7.757,71.969L-52.239,71.923L-79.53,72.201C-80.402,72.21 -80.921,71.579 -80.53,70.943L-77.098,65.361C-75.374,62.558 -74.216,59.698 -74.23,56.319L-74.268,47.253L-74.32,-44.512C-74.324,-51.49 -77.183,-55.726 -81.026,-60.32C-78.349,-59.896 -75.993,-59.528 -73.231,-59.554L-39.48,-59.874C-27.243,-59.99 -15.498,-60.153 -3.256,-59.779C4.168,-59.553 10.657,-61.357 14.398,-55.395C17.42,-50.579 19.767,-45.713 21.952,-40.64C22.018,-40.486 21.746,-40.215 21.545,-40.276C12.047,-43.165 16.548,-47.63 -7.337,-47.564L-48.641,-47.449C-50.989,-47.443 -53.096,-47.475 -55.368,-47.085C-59.817,-46.32 -58.345,-40.688 -58.348,-35.743L-58.363,-8.65C-58.366,-4.005 -57.947,0.986 -52.745,1.997C-47.323,3.05 -36.97,-0.576 -31.392,-2.593C-26.283,-4.441 -8.117,-10.431 -3.938,-10.939C5.76,-12.117 1.348,11.561 0,11.308" style="fill-rule:nonzero;"/>
                    </g>
                    <g transform="matrix(1,0,0,1,524.3854,400.025)">
                        <path d="M0,147.341C-0.162,149.826 -1.025,151.876 -1.946,154.208C-4.811,160.63 -14.518,163.545 -20.974,162.995C-30.054,162.221 -47.073,152.579 -55.583,148.002L-70.551,139.953C-94.539,127.053 -114.751,116.749 -142.783,115.181C-144.631,115.004 -146.197,115.028 -147.986,114.496C-147.314,107.065 -140.228,105.658 -140.246,97.774L-140.265,88.798L-140.277,9.882C-140.279,-4.607 -138.965,-0.825 -145.809,-12.725C-146.116,-13.777 -146.387,-14.674 -145.91,-15.622C-144.305,-16.02 -143.031,-16.204 -141.416,-16.192L-124.162,-16.07C-121.906,-16.054 -119.97,-16.011 -117.751,-15.567C-117.891,-12.932 -119.18,-10.744 -120.834,-8.623C-125.291,-2.91 -124.29,1.997 -124.291,9.871L-124.301,88.805C-124.302,94.95 -125.803,102.004 -119.955,103.624L-112.14,105.79L-94.645,111.492C-89.492,113.172 -84.708,115.183 -79.952,117.754L-62.525,127.176L-43.799,137.508C-36.72,141.414 -29.464,144.362 -21.594,146.413C-11.466,149.052 -10.39,146.752 0,147.341" style="fill-rule:nonzero;"/>
                    </g>
                    <g transform="matrix(1,0,0,1,484.4185,418.1127)">
                        <path d="M0,74.463C14.58,88.412 43.36,79.896 60.303,73.513L73.276,68.627C77.818,66.916 82.188,65.543 86.977,64.445C90.037,63.743 85.395,71.286 82.182,74.235C59.032,95.483 -1.637,109.194 -20.519,78.008C-28.997,64.005 -32.149,43.676 -29.257,27.508C-26.428,11.696 -20.483,-4.688 -9.749,-16.68C-6.537,-20.268 -2.772,-23.006 1.288,-25.589C14.657,-34.098 26.055,-34.731 41.751,-34.275C51.85,-33.982 64.855,-28.517 71.728,-21.342C75.496,-17.408 74.809,-11.633 70.418,-8.56C68.362,-7.121 59.912,-1.589 58.541,-2.449C56.936,-3.456 59.765,-12.386 54.256,-16.86C38.881,-29.348 10.865,-19.857 -0.863,-3.721C-5.592,2.786 -8.753,10.256 -9.928,18.298C-11.496,29.035 -11.725,44.46 -9.965,55.185C-8.743,62.63 -5.414,69.284 0,74.463" style="fill-rule:nonzero;"/>
                    </g>
                    <g transform="matrix(1,0,0,1,583.9585,377.8394)">
                        <path d="M0,147.136C-3.904,147.626 -2.282,139.583 -2.327,134.021L-2.719,86.046L-2.87,60.01L-3.111,23.66C-3.185,12.514 -13.302,6.283 -7.823,6.259L17.135,6.153C23.705,6.125 12.661,14.442 12.748,23.012L12.849,33.032L12.744,75.297C12.74,77.059 12.798,78.639 13.513,79.879C16.802,79.288 19.263,78.935 22.099,78.221L40.523,73.583L68.273,65.474C73.307,64.003 77.641,62.794 78.877,57.508C80.768,49.426 79.955,29.065 79.276,19.921C78.941,15.404 78.999,11.899 82.307,9.2L88.365,4.257C89.509,3.323 95.322,-0.49 95.309,1.281L95.145,23.115L95.14,110.951L95.113,120.109C95.088,128.436 106.744,136.696 100.09,136.701L79.017,136.715C77.155,136.716 75.593,136.64 73.81,136.257C74.575,129.496 79.241,128.821 79.242,120.008L79.245,99.023L79.308,78.781C79.311,77.836 79.418,75.487 78.666,75.43C75.835,75.213 73.379,75.949 70.932,76.57L54.137,80.829C45.303,83.07 23.995,88.095 16.994,91.776C12.771,93.997 12.682,98.243 12.776,102.896L13.165,122.085L13.422,133.411C13.601,141.274 6.918,146.267 0,147.136" style="fill-rule:nonzero;"/>
                    </g>
                    <g transform="matrix(1,0,0,1,784.1951,442.8378)">
                        <path d="M0,12.367C-3.621,10.564 -5.508,6.659 -13.985,6.897C-26.479,7.248 -43.987,13.607 -54.304,20.731C-56.203,22.042 -57.52,23.8 -57.872,26.177C-58.214,28.483 -58.21,52.368 -57.809,54.603C-56.829,60.059 -51.072,60.659 -46.2,60.654L-26.082,60.633L6.979,60.683C11.686,60.69 16.044,59.623 19.822,57.115L25.867,53.102C28.436,51.396 35.26,48.433 33.259,51.148C17.468,72.577 27.29,71.676 8.901,71.648L-66.053,71.534C-71.036,71.526 -75.412,71.47 -79.896,72.794C-78.159,66.381 -73.917,64.316 -73.944,57.167L-74.018,36.996L-74.031,-12.958L-74.012,-47.06C-74.01,-51.721 -76.459,-55.379 -79.366,-58.819C-80.021,-59.326 -79.92,-59.782 -79.141,-59.69C-74.035,-59.092 -69.337,-58.964 -64.312,-59.109L-41.064,-59.779C-26.884,-60.187 -13.213,-60.179 0.959,-59.592C6.42,-59.365 12.311,-60.427 14.78,-55.952L19.792,-46.87C20.823,-45.004 21.948,-40.074 20.344,-40.772C18.552,-41.552 17.148,-42.559 15.531,-43.559C8.966,-47.622 0.204,-47.401 -8.103,-47.377L-49.122,-47.26C-51.09,-47.254 -52.83,-47.092 -54.659,-46.664C-59.313,-45.574 -58.088,-39.606 -58.084,-35.055L-58.062,-9.971C-58.059,-7.471 -58.01,-5.165 -57.442,-2.806C-54.035,11.365 -21.548,-8.495 -0.904,-10.596C0.276,-10.716 1.583,-10.228 1.735,-8.874C1.983,-6.657 3.331,14.026 0,12.367" style="fill-rule:nonzero;"/>
                    </g>
                </g>
            </g>
        </g>
    </g>
</svg>
